<svg xmlns="http://www.w3.org/2000/svg" width="646" height="92" viewBox="0 0 646 92" font-family="Arial, Helvetica, sans-serif">
<rect x="1" y="1" width="644" height="90" rx="12" fill="#ffffff" stroke="#e2e8f0" stroke-width="2"/>
<text x="55" y="20" text-anchor="middle" font-size="16" font-weight="700" fill="#334155">1</text>
<rect x="12" y="52" width="40" height="40" rx="6" fill="#2b5cb8"/>
<rect x="58" y="52" width="40" height="40" rx="6" fill="#2b5cb8"/>
<text x="231" y="20" text-anchor="middle" font-size="16" font-weight="700" fill="#334155">2</text>
<rect x="142" y="52" width="40" height="40" rx="6" fill="#2b5cb8"/>
<rect x="188" y="52" width="40" height="40" rx="6" fill="#2b5cb8"/>
<rect x="234" y="52" width="40" height="40" rx="6" fill="#2b5cb8"/>
<rect x="280" y="52" width="40" height="40" rx="6" fill="#2b5cb8"/>
<text x="499" y="20" text-anchor="middle" font-size="16" font-weight="700" fill="#334155">3</text>
<rect x="364" y="52" width="40" height="40" rx="6" fill="#2b5cb8"/>
<rect x="410" y="52" width="40" height="40" rx="6" fill="#2b5cb8"/>
<rect x="456" y="52" width="40" height="40" rx="6" fill="#2b5cb8"/>
<rect x="502" y="52" width="40" height="40" rx="6" fill="#2b5cb8"/>
<rect x="548" y="52" width="40" height="40" rx="6" fill="#2b5cb8"/>
<rect x="594" y="52" width="40" height="40" rx="6" fill="#2b5cb8"/>
</svg>